<svg xmlns="http://www.w3.org/2000/svg" width="21" height="20" viewBox="0 0 21 20"><defs><style>.a{fill:#2d3142;fill-rule:evenodd;}</style></defs><g transform="translate(-379 -280)"><g transform="translate(56 160)"><path class="a" d="M341.9,137.261c0,.55-.4.739-.98.739h-9.45c-.577,0-1.12-.189-1.12-.739V135h6.895c.87,0,1.505-.411,1.505-1.239V127h2.17c.58,0,.98.709.98,1.261ZM326.22,133c-.577,0-1.12-.189-1.12-.739v-9A1.335,1.335,0,0,1,326.22,122h9.45c.58,0,.98.709.98,1.261v9c0,.55-.4.739-.98.739Zm16.275-8H338.75v-3.239A1.716,1.716,0,0,0,337.245,120h-12.6A1.843,1.843,0,0,0,323,121.761v12c0,.825.78,1.239,1.645,1.239h3.605v3.761c0,.825.78,1.239,1.645,1.239h12.6c.87,0,1.505-.411,1.505-1.239v-12A1.716,1.716,0,0,0,342.495,125Z"/></g></g></svg>