<svg xmlns="http://www.w3.org/2000/svg" width="15" height="15" viewBox="0 0 15 15"><path d="M136.75,846.5v-2.25l.75,2.25Zm0,6h-10.5a.75.75,0,0,1-.75-.75V848h2.25a.75.75,0,0,1,.75.75v.75A1.5,1.5,0,0,0,130,851h3a1.5,1.5,0,0,0,1.5-1.5v-.75a.75.75,0,0,1,.75-.75h2.25v3.75A.75.75,0,0,1,136.75,852.5Zm-10.5-8.25v2.25h-.75Zm2.25-3.75h6a.75.75,0,0,1,.75.75v5.25h-.75A1.5,1.5,0,0,0,133,848v.75a.75.75,0,0,1-.75.75h-1.5a.75.75,0,0,1-.75-.75V848a1.5,1.5,0,0,0-1.5-1.5h-.75v-5.25A.75.75,0,0,1,128.5,840.5Zm9,1.5h-.75v-1.5a1.5,1.5,0,0,0-1.5-1.5h-7.5a1.5,1.5,0,0,0-1.5,1.5V842h-.75l-1.5,4.5v6a1.5,1.5,0,0,0,1.5,1.5h12a1.5,1.5,0,0,0,1.5-1.5v-6Z" transform="translate(-124 -839)" fill="#7c7f8a" fill-rule="evenodd"/></svg>