<svg xmlns="http://www.w3.org/2000/svg" width="21" height="20" viewBox="0 0 21 20"><g transform="translate(-139 -320)"><g transform="translate(56 160)"><path d="M98.786,170.4a4.379,4.379,0,0,0-1.276,3.9l.46,2.656-2.4-1.254a4.467,4.467,0,0,0-4.13,0l-2.4,1.254.46-2.656a4.382,4.382,0,0,0-1.276-3.9l-1.945-1.881,2.688-.388a4.432,4.432,0,0,0,3.341-2.408l1.2-2.417,1.2,2.417a4.43,4.43,0,0,0,3.34,2.408l2.689.388L98.786,170.4Zm4.638-.971a1.882,1.882,0,0,0-1.053-3.217l-3.963-.571a1.9,1.9,0,0,1-1.431-1.032L95.2,161.051a1.908,1.908,0,0,0-3.409,0l-1.771,3.562a1.9,1.9,0,0,1-1.431,1.032l-3.963.571a1.882,1.882,0,0,0-1.054,3.217l2.867,2.773a1.873,1.873,0,0,1,.547,1.669l-.677,3.916a1.9,1.9,0,0,0,2.758,1.988l3.544-1.849a1.919,1.919,0,0,1,1.77,0l3.544,1.849a1.9,1.9,0,0,0,2.758-1.988l-.677-3.916a1.874,1.874,0,0,1,.546-1.669l2.868-2.773Z" fill="#2d3142" fill-rule="evenodd"/></g></g></svg>