<svg xmlns="http://www.w3.org/2000/svg" width="16.194" height="17" viewBox="0 0 16.194 17"><g transform="translate(0.737 0.676)"><g transform="translate(-0.237 -0.176)"><g transform="translate(0)"><g transform="translate(-78.939 -1130.78)" fill="#7c7f8a" fill-rule="evenodd"><path d="M 93.54844665527344 1147.02978515625 C 93.32612609863281 1147.02978515625 93.11683654785156 1146.943481445313 92.95913696289063 1146.786743164063 L 89.43351745605469 1143.24853515625 C 88.29844665527344 1143.997314453125 86.98627471923828 1144.391967773438 85.62503814697266 1144.391967773438 C 83.45706939697266 1144.391967773438 81.45513916015625 1143.40869140625 80.132568359375 1141.694091796875 C 79.036865234375 1140.273681640625 78.53828430175781 1138.509033203125 78.72868347167969 1136.725219726563 C 78.91909027099609 1134.94140625 79.77890014648438 1133.321655273438 81.14972686767578 1132.164428710938 C 82.39859771728516 1131.1103515625 83.98550415039063 1130.52978515625 85.61815643310547 1130.52978515625 C 87.54892730712891 1130.52978515625 89.40654754638672 1131.34326171875 90.71470642089844 1132.761352539063 C 91.93106842041016 1134.079956054688 92.58287048339844 1135.7939453125 92.55005645751953 1137.587524414063 C 92.51876831054688 1139.297973632813 91.86788940429688 1140.913330078125 90.71150970458984 1142.163696289063 L 94.10894775390625 1145.571533203125 L 94.137939453125 1145.600341796875 C 94.46467590332031 1145.92529296875 94.46640014648438 1146.455810546875 94.14176940917969 1146.782836914063 C 93.9835205078125 1146.942138671875 93.77283477783203 1147.02978515625 93.54844665527344 1147.02978515625 Z M 85.65805816650391 1132.308471679688 C 82.79743957519531 1132.308471679688 80.46269989013672 1134.6357421875 80.45353698730469 1137.496459960938 C 80.45108032226563 1138.888793945313 80.99118041992188 1140.198974609375 81.97434997558594 1141.185302734375 C 82.95751953125 1142.171752929688 84.26591491699219 1142.715942382813 85.65851593017578 1142.717895507813 C 88.52496337890625 1142.717895507813 90.85975646972656 1140.385498046875 90.86281585693359 1137.5185546875 C 90.86587524414063 1134.65185546875 88.53606414794922 1132.314575195313 85.66927337646484 1132.308471679688 L 85.65805816650391 1132.308471679688 Z" stroke="none"/><path d="M 93.54844665527344 1146.77978515625 C 93.69912719726563 1146.77978515625 93.84976196289063 1146.722045898438 93.96434020996094 1146.606689453125 C 94.19249725341797 1146.376831054688 94.19127655029297 1146.005981445313 93.96163940429688 1145.777587890625 L 93.96160888671875 1145.77783203125 L 90.36197662353516 1142.167236328125 C 92.8807373046875 1139.629516601563 92.95521545410156 1135.558959960938 90.53094482421875 1132.930908203125 C 89.21731567382813 1131.5068359375 87.42181396484375 1130.77978515625 85.6181640625 1130.77978515625 C 84.09324645996094 1130.77978515625 82.56266021728516 1131.299072265625 81.31098937988281 1132.35546875 C 78.57884979248047 1134.661865234375 78.146728515625 1138.71044921875 80.33051300048828 1141.541381835938 C 81.64301300048828 1143.242919921875 83.62090301513672 1144.141967773438 85.62503814697266 1144.141967773438 C 86.95549011230469 1144.141967773438 88.29743194580078 1143.745849609375 89.46421051025391 1142.925170898438 L 93.13536834716797 1146.609375 C 93.24970245361328 1146.723022460938 93.39909362792969 1146.77978515625 93.54844665527344 1146.77978515625 M 85.65805816650391 1132.058471679688 C 85.66210174560547 1132.058471679688 85.665771484375 1132.058471679688 85.66981506347656 1132.058471679688 C 88.68004608154297 1132.06494140625 91.11602783203125 1134.508666992188 91.11281585693359 1137.518798828125 C 91.10960388183594 1140.529174804688 88.66843414306641 1142.967895507813 85.65818023681641 1142.967895507813 C 82.64064025878906 1142.963745117188 80.19820404052734 1140.513305664063 80.20353698730469 1137.49560546875 C 80.21316528320313 1134.489501953125 82.65338134765625 1132.058471679688 85.65805816650391 1132.058471679688 M 93.54844665527344 1147.27978515625 C 93.25965881347656 1147.27978515625 92.98777770996094 1147.167602539063 92.78291320800781 1146.963989257813 L 89.39857482910156 1143.567626953125 C 88.26298522949219 1144.271850585938 86.96705627441406 1144.641967773438 85.62503814697266 1144.641967773438 C 83.37896728515625 1144.641967773438 81.30488586425781 1143.623168945313 79.93461608886719 1141.846801757813 C 78.79940032958984 1140.375122070313 78.2828369140625 1138.546875 78.48011016845703 1136.698608398438 C 78.6773681640625 1134.850463867188 79.56818389892578 1133.17236328125 80.98845672607422 1131.973388671875 C 82.28238677978516 1130.881225585938 83.92656707763672 1130.27978515625 85.61815643310547 1130.27978515625 C 87.6185302734375 1130.27978515625 89.54312896728516 1131.12255859375 90.89846801757813 1132.591918945313 C 92.15869903564453 1133.9580078125 92.83400726318359 1135.73388671875 92.80001831054688 1137.592041015625 C 92.76906585693359 1139.28369140625 92.15322875976563 1140.885498046875 91.05524444580078 1142.154418945313 L 94.28414154052734 1145.393188476563 L 94.31422424316406 1145.423095703125 C 94.73861694335938 1145.84521484375 94.7408447265625 1146.5341796875 94.31919860839844 1146.958984375 C 94.11356353759766 1147.165893554688 93.83990478515625 1147.27978515625 93.54844665527344 1147.27978515625 Z M 85.65805816650391 1132.558471679688 C 82.93484497070313 1132.558471679688 80.71225738525391 1134.77392578125 80.70353698730469 1137.497192382813 C 80.70119476318359 1138.822387695313 81.21538543701172 1140.06982421875 82.15140533447266 1141.008911132813 C 83.08741760253906 1141.947875976563 84.33305358886719 1142.466064453125 85.65886688232422 1142.467895507813 C 88.38726806640625 1142.467895507813 90.60990905761719 1140.24755859375 90.61281585693359 1137.518310546875 C 90.61573028564453 1134.789306640625 88.3978271484375 1132.564331054688 85.66874694824219 1132.558471679688 L 85.65805816650391 1132.558471679688 Z" stroke="none" fill="#7c7f8a"/></g></g></g></g></svg>